<svg width="331" height="299" viewBox="0 0 331 299" fill="none" xmlns="http://www.w3.org/2000/svg">
<path d="M27.5002 142.02C20.2067 142.02 13.2119 144.973 8.05463 150.23C2.89734 155.487 0 162.616 0 170.051V179.395C0 179.395 0 246.67 95.3341 246.67C190.668 246.67 190.668 179.395 190.668 179.395V170.051C190.668 162.616 187.771 155.487 182.614 150.23C177.456 144.973 170.462 142.02 163.168 142.02H27.5002Z" fill="url(#paint0_radial_2084_2)" fill-opacity="0.5"/>
<path d="M95.3342 119.6C110.894 119.6 125.816 113.3 136.818 102.085C147.82 90.8704 154.001 75.66 154.001 59.8001C154.001 43.9401 147.82 28.7297 136.818 17.515C125.816 6.30034 110.894 0 95.3342 0C79.7747 0 64.8524 6.30034 53.8502 17.515C42.848 28.7297 36.667 43.9401 36.667 59.8001C36.667 75.66 42.848 90.8704 53.8502 102.085C64.8524 113.3 79.7747 119.6 95.3342 119.6Z" fill="url(#paint1_linear_2084_2)"/>
<path d="M307.999 216.78C307.999 171.362 271.882 134.555 227.332 134.555C182.789 134.555 146.672 171.362 146.672 216.78C146.672 230.713 150.089 244.153 156.491 256.113L146.943 289.87C146.596 291.098 146.577 292.398 146.889 293.635C147.201 294.872 147.833 296.001 148.719 296.905C149.605 297.808 150.712 298.454 151.926 298.773C153.139 299.092 154.415 299.074 155.619 298.721L188.758 289.003C200.59 295.579 213.856 299.013 227.332 298.99C271.882 298.99 307.999 262.175 307.999 216.765" fill="url(#paint2_linear_2084_2)"/>
<path d="M198.001 194.352H256.669C258.613 194.352 260.479 195.139 261.854 196.541C263.229 197.943 264.002 199.844 264.002 201.827C264.002 203.809 263.229 205.71 261.854 207.112C260.479 208.514 258.613 209.302 256.669 209.302H198.001C196.056 209.302 194.191 208.514 192.816 207.112C191.441 205.71 190.668 203.809 190.668 201.827C190.668 199.844 191.441 197.943 192.816 196.541C194.191 195.139 196.056 194.352 198.001 194.352ZM190.668 231.727C190.668 229.744 191.441 227.843 192.816 226.441C194.191 225.039 196.056 224.252 198.001 224.252H234.668C236.613 224.252 238.479 225.039 239.854 226.441C241.229 227.843 242.002 229.744 242.002 231.727C242.002 233.709 241.229 235.61 239.854 237.012C238.479 238.414 236.613 239.202 234.668 239.202H198.001C196.056 239.202 194.191 238.414 192.816 237.012C191.441 235.61 190.668 233.709 190.668 231.727Z" fill="url(#paint3_linear_2084_2)"/>
<path d="M249.601 75.4734L310.687 38.4166C319.279 33.2063 331 38.6115 331 47.7718V103.175C331 112.335 319.279 117.74 310.687 112.53L249.601 75.4734Z" fill="url(#paint4_radial_2084_2)"/>
<path d="M249.601 75.4734L310.687 38.4166C319.279 33.2063 331 38.6115 331 47.7718V103.175C331 112.335 319.279 117.74 310.687 112.53L249.601 75.4734Z" fill="url(#paint5_linear_2084_2)" fill-opacity="0.75"/>
<path d="M183 51.114C183 45.5142 185.534 40.1438 190.044 36.1842C194.554 32.2245 200.672 30 207.05 30H255.15C258.308 30 261.436 30.5461 264.353 31.6072C267.271 32.6683 269.923 34.2235 272.156 36.1842C274.389 38.1448 276.161 40.4724 277.369 43.034C278.578 45.5957 279.2 48.3413 279.2 51.114V99.8387C279.2 102.611 278.578 105.357 277.369 107.919C276.161 110.48 274.389 112.808 272.156 114.769C269.923 116.729 267.271 118.284 264.353 119.346C261.436 120.407 258.308 120.953 255.15 120.953H207.05C200.672 120.953 194.554 118.728 190.044 114.769C185.534 110.809 183 105.438 183 99.8387V51.114Z" fill="url(#paint6_radial_2084_2)"/>
<path opacity="0.5" d="M197.8 94.9679C197.8 91.5218 199.359 88.217 202.135 85.7802C204.91 83.3435 208.675 81.9746 212.6 81.9746H249.6C253.525 81.9746 257.289 83.3435 260.065 85.7802C262.84 88.217 264.4 91.5218 264.4 94.9679C264.4 98.4139 262.84 101.719 260.065 104.155C257.289 106.592 253.525 107.961 249.6 107.961H212.6C208.675 107.961 204.91 106.592 202.135 104.155C199.359 101.719 197.8 98.4139 197.8 94.9679Z" fill="url(#paint7_linear_2084_2)"/>
<path d="M212.599 88.4707C210.637 88.4707 208.754 89.1552 207.367 90.3735C205.979 91.5919 205.199 93.2443 205.199 94.9673C205.199 96.6903 205.979 98.3428 207.367 99.5611C208.754 100.779 210.637 101.464 212.599 101.464H227.399C229.362 101.464 231.244 100.779 232.632 99.5611C234.02 98.3428 234.799 96.6903 234.799 94.9673C234.799 93.2443 234.02 91.5919 232.632 90.3735C231.244 89.1552 229.362 88.4707 227.399 88.4707H212.599ZM249.599 101.464C251.562 101.464 253.444 100.779 254.832 99.5611C256.22 98.3428 256.999 96.6903 256.999 94.9673C256.999 93.2443 256.22 91.5919 254.832 90.3735C253.444 89.1552 251.562 88.4707 249.599 88.4707C247.637 88.4707 245.754 89.1552 244.367 90.3735C242.979 91.5919 242.199 93.2443 242.199 94.9673C242.199 96.6903 242.979 98.3428 244.367 99.5611C245.754 100.779 247.637 101.464 249.599 101.464Z" fill="#BABAFF"/>
<defs>
<radialGradient id="paint0_radial_2084_2" cx="0" cy="0" r="1" gradientTransform="matrix(36.667 85.9623 -87.6803 38.8581 190.668 216.77)" gradientUnits="userSpaceOnUse">
<stop offset="1" stop-color="#96B4E4"/>
</radialGradient>
<linearGradient id="paint1_linear_2084_2" x1="64.5706" y1="15.8993" x2="126.024" y2="112.166" gradientUnits="userSpaceOnUse">
<stop stop-color="#96B4E4"/>
<stop offset="1" stop-color="#7494EC"/>
</linearGradient>
<linearGradient id="paint2_linear_2084_2" x1="152.429" y1="165.389" x2="297.32" y2="407.739" gradientUnits="userSpaceOnUse">
<stop stop-color="#978BD7"/>
<stop offset="1" stop-color="#815EF2"/>
</linearGradient>
<linearGradient id="paint3_linear_2084_2" x1="197.085" y1="195.136" x2="201.708" y2="243.924" gradientUnits="userSpaceOnUse">
<stop offset="1" stop-color="#BABAFF"/>
</linearGradient>
<radialGradient id="paint4_radial_2084_2" cx="0" cy="0" r="1" gradientTransform="matrix(36.9999 120.188 -229.851 54.5383 294.001 17.0038)" gradientUnits="userSpaceOnUse">
<stop offset="0.081" stop-color="#85A4E8"/>
<stop offset="0.394" stop-color="#7393EE"/>
<stop offset="1" stop-color="#4E44DB"/>
</radialGradient>
<linearGradient id="paint5_linear_2084_2" x1="272.215" y1="75.4734" x2="330.934" y2="73.5099" gradientUnits="userSpaceOnUse">
<stop stop-color="#85A4E8"/>
<stop offset="1" stop-color="#312A9A" stop-opacity="0"/>
</linearGradient>
<radialGradient id="paint6_radial_2084_2" cx="0" cy="0" r="1" gradientTransform="matrix(110.682 96.2589 -230.373 204.165 165.512 33.7871)" gradientUnits="userSpaceOnUse">
<stop offset="0.341" stop-color="#97BAFF"/>
<stop offset="1" stop-color="#8383EF"/>
</radialGradient>
<linearGradient id="paint7_linear_2084_2" x1="196.29" y1="81.9746" x2="204.145" y2="117.182" gradientUnits="userSpaceOnUse">
<stop offset="1" stop-color="#89A8E8"/>
</linearGradient>
</defs>
</svg>
